<?xml version="1.0" standalone="no"?>
<!DOCTYPE svg PUBLIC "-//W3C//DTD SVG 20010904//EN"
 "http://www.w3.org/TR/2001/REC-SVG-20010904/DTD/svg10.dtd">
<svg version="1.0" xmlns="http://www.w3.org/2000/svg"
 width="2560.000000pt" height="635.000000pt" viewBox="0 0 2560.000000 635.000000"
 preserveAspectRatio="xMidYMid meet">

<g transform="translate(0.000000,635.000000) scale(0.100000,-0.100000)"
fill="#000000" stroke="none">
<path d="M22155 6339 c-991 -76 -1861 -577 -2385 -1376 -692 -1052 -692 -2525
0 -3576 504 -767 1301 -1248 2260 -1363 198 -24 590 -24 790 0 620 74 1164
295 1622 658 134 106 373 345 477 476 584 739 806 1729 610 2712 -95 472 -317
950 -619 1330 -107 135 -325 353 -460 460 -632 502 -1448 743 -2295 679z m700
-527 c576 -90 1063 -331 1450 -717 398 -399 639 -900 732 -1520 25 -171 25
-629 0 -800 -66 -440 -206 -819 -425 -1146 -250 -374 -559 -643 -967 -844
-257 -127 -493 -201 -786 -247 -125 -19 -183 -22 -434 -22 -250 0 -309 3 -430
22 -300 47 -556 128 -810 256 -258 131 -443 264 -640 461 -392 391 -634 883
-727 1476 -19 126 -22 182 -22 444 0 262 3 318 22 444 94 596 336 1086 732
1481 195 195 388 333 641 459 292 146 593 232 939 270 146 16 576 6 725 -17z"/>
<path d="M21690 5077 l0 -194 84 -6 c107 -8 141 -25 169 -85 l22 -47 3 -1672
2 -1673 455 0 455 0 0 1795 c0 1287 -3 1809 -11 1847 -22 104 -70 165 -158
200 -55 22 -65 23 -538 26 l-483 3 0 -194z"/>
<path d="M20875 4476 c-69 -17 -105 -38 -148 -85 -77 -85 -71 25 -75 -1569
l-3 -1422 456 0 455 0 0 1545 0 1545 -317 -1 c-216 0 -334 -5 -368 -13z"/>
<path d="M23290 2945 l0 -1545 455 0 455 0 0 1383 c0 883 -4 1405 -10 1447
-14 88 -55 167 -105 202 -74 52 -119 58 -472 58 l-323 0 0 -1545z"/>
<path d="M7765 5511 c-189 -31 -315 -114 -378 -249 -27 -57 -32 -81 -35 -164
-7 -167 47 -286 168 -371 90 -62 191 -89 356 -95 158 -5 252 12 358 64 209
102 288 369 173 587 -53 101 -156 176 -292 212 -69 19 -276 28 -350 16z"/>
<path d="M790 5270 l0 -180 98 0 c121 0 186 -18 229 -62 44 -47 57 -102 43
-191 -6 -45 -228 -725 -584 -1794 l-574 -1723 502 0 502 0 143 483 c79 265
148 490 153 500 8 16 44 17 595 15 l586 -3 138 -494 c76 -271 140 -495 142
-497 2 -2 247 -3 543 -2 l540 3 -546 1920 c-300 1056 -558 1946 -572 1977 -53
115 -156 194 -282 217 -40 7 -323 11 -858 11 l-798 0 0 -180z m1334 -1501
c107 -398 198 -736 201 -751 l7 -28 -437 0 c-411 0 -436 1 -431 18 28 95 431
1409 442 1445 9 27 18 47 20 45 2 -2 91 -330 198 -729z"/>
<path d="M3840 5270 l0 -180 73 0 c107 -1 175 -38 209 -115 11 -24 13 -370 16
-1842 l2 -1813 485 0 485 0 -2 1954 -3 1953 -35 68 c-41 80 -100 127 -180 144
-33 7 -229 11 -550 11 l-500 0 0 -180z"/>
<path d="M5500 5270 l0 -180 68 0 c112 -1 169 -31 203 -105 18 -38 19 -115 19
-1852 l0 -1813 485 0 485 0 -2 1958 -3 1957 -23 51 c-29 63 -72 106 -137 136
-50 23 -51 23 -572 26 l-523 3 0 -181z"/>
<path d="M10230 4450 c-399 -31 -781 -128 -1070 -273 -71 -35 -104 -57 -102
-67 2 -13 202 -571 207 -577 1 -2 46 17 101 41 252 111 537 179 803 192 294
15 394 -68 403 -335 l3 -94 -245 -43 c-477 -83 -731 -148 -924 -237 -349 -162
-516 -455 -516 -907 0 -468 169 -740 515 -831 56 -15 124 -22 225 -26 340 -12
610 78 896 297 l79 61 6 -78 c7 -90 31 -145 83 -191 68 -60 90 -62 613 -62
l473 0 0 165 0 165 -55 0 c-92 0 -149 32 -189 105 -21 40 -21 44 -27 975 -7
984 -6 976 -54 1160 -9 36 -37 108 -62 160 -104 216 -297 339 -606 385 -132
19 -405 27 -557 15z m350 -1949 l0 -298 -44 -41 c-166 -153 -362 -241 -512
-229 -82 6 -131 31 -164 84 -69 108 -66 388 5 509 44 75 136 124 376 200 94
30 274 72 312 73 l27 1 0 -299z"/>
<path d="M13975 4439 c-257 -35 -480 -146 -726 -362 l-86 -76 -5 107 c-5 127
-33 202 -91 246 -71 55 -87 56 -629 56 l-498 0 2 -172 3 -173 75 -6 c80 -5
109 -16 153 -57 59 -56 57 -7 57 -1404 l0 -1278 480 0 480 0 0 1044 0 1044 79
74 c88 83 198 146 297 172 72 19 216 21 265 5 48 -16 95 -64 116 -118 17 -43
18 -117 21 -1134 l3 -1087 485 0 485 0 -4 1228 c-5 1317 -4 1308 -56 1465 -47
142 -170 281 -305 348 -122 59 -215 80 -386 84 -80 2 -176 0 -215 -6z"/>
<path d="M7190 4235 l0 -175 68 0 c106 -1 162 -33 199 -115 17 -38 18 -116 21
-1332 l2 -1293 480 0 480 0 -2 1443 -3 1442 -23 47 c-13 26 -43 65 -67 87 -76
70 -82 71 -652 71 l-503 0 0 -175z"/>
<path d="M15574 4392 c-59 -21 -99 -50 -129 -95 -47 -70 -49 -85 -53 -439 l-3
-338 180 0 181 0 0 58 c1 99 47 169 129 192 23 7 171 10 413 8 l377 -3 -649
-910 -649 -910 -1 -322 0 -323 1215 0 1215 0 0 228 c0 125 3 271 7 325 l6 97
-676 0 c-373 0 -677 2 -677 5 0 3 290 412 645 910 l645 904 0 316 0 315 -1062
0 c-987 -1 -1067 -2 -1114 -18z"/>
</g>
</svg>
